<svg width="79" height="96" viewBox="0 0 79 96" fill="none" xmlns="http://www.w3.org/2000/svg">
<path d="M73.6514 24.5715C73.564 23.5359 72.6916 22.7424 71.6521 22.7525H56.4572V16.9943C56.4572 7.60839 48.848 0 39.4629 0C30.077 0 22.4686 7.60839 22.4686 16.9943V22.7525H7.27367C6.23886 22.7564 5.37509 23.5421 5.27434 24.5715L0.0362506 84.7919C-0.201951 87.584 0.741483 90.3487 2.6385 92.4128C4.53474 94.4762 7.20963 95.65 10.0126 95.6477H68.9327C71.7357 95.65 74.4106 94.4762 76.3068 92.4128C78.2038 90.3487 79.148 87.584 78.9098 84.7919L73.6514 24.5715ZM26.4672 16.9943C26.4672 9.81703 32.2856 3.99866 39.4629 3.99866C46.6402 3.99866 52.4585 9.81703 52.4585 16.9943V22.7525H26.4672V16.9943ZM73.3515 89.7098C72.2207 90.9547 70.6142 91.66 68.9327 91.649H9.99229C8.31082 91.6498 6.70667 90.9446 5.56955 89.7059C4.43322 88.4665 3.86856 86.8069 4.01461 85.1317L9.09259 26.7512H22.4686V39.2267C19.2533 40.2162 17.2453 43.4081 17.7459 46.7351C18.2458 50.0614 21.1042 52.5215 24.4679 52.5215C27.8316 52.5215 30.6893 50.0614 31.1899 46.7351C31.6897 43.4081 29.6818 40.2162 26.4672 39.2267V26.7309H52.4585V39.2267C49.2432 40.2162 47.2353 43.4081 47.7359 46.7351C48.2357 50.0614 51.0941 52.5215 54.4579 52.5215C57.8216 52.5215 60.6792 50.0614 61.1798 46.7351C61.6797 43.4081 59.6717 40.2162 56.4572 39.2267V26.7309H69.8129L74.8909 85.1114C75.0549 86.7936 74.4949 88.4657 73.3515 89.7098ZM24.168 42.9458C24.3672 42.9723 24.5687 42.9723 24.7678 42.9458C26.2462 43.1051 27.3427 44.3937 27.2631 45.8784C27.1826 47.3638 25.9549 48.5275 24.4679 48.5275C22.9801 48.5275 21.7524 47.3638 21.6728 45.8784C21.5931 44.3937 22.6888 43.1051 24.168 42.9458ZM54.158 42.9458C54.3571 42.9723 54.5586 42.9723 54.7578 42.9458C56.2362 43.1051 57.3327 44.3937 57.253 45.8784C57.1726 47.3638 55.9449 48.5275 54.4579 48.5275C52.9701 48.5275 51.7424 47.3638 51.6627 45.8784C51.583 44.3937 52.6788 43.1051 54.158 42.9458Z" fill="black"/>
<path d="M45.304 69.576C46.4987 69.7893 47.512 70.4187 48.344 71.464C49.176 72.5093 49.592 73.6933 49.592 75.016C49.592 76.1467 49.2933 77.1707 48.696 78.088C48.12 78.984 47.2773 79.6987 46.168 80.232C45.0587 80.744 43.768 81 42.296 81H33.4V58.76H41.88C43.3947 58.76 44.696 59.016 45.784 59.528C46.872 60.04 47.6933 60.7333 48.248 61.608C48.8027 62.4613 49.08 63.4213 49.08 64.488C49.08 65.768 48.7387 66.8347 48.056 67.688C47.3733 68.5413 46.456 69.1707 45.304 69.576ZM37.048 68.104H41.56C42.7547 68.104 43.6827 67.8373 44.344 67.304C45.0267 66.7493 45.368 65.96 45.368 64.936C45.368 63.9333 45.0267 63.1547 44.344 62.6C43.6827 62.024 42.7547 61.736 41.56 61.736H37.048V68.104ZM41.976 78.024C43.2133 78.024 44.184 77.7253 44.888 77.128C45.592 76.5307 45.944 75.6987 45.944 74.632C45.944 73.544 45.5707 72.68 44.824 72.04C44.0773 71.4 43.0853 71.08 41.848 71.08H37.048V78.024H41.976Z" fill="#29A867"/>
</svg>
